<svg width="18" height="21" viewBox="0 0 18 21" fill="none" xmlns="http://www.w3.org/2000/svg">
<path d="M17.2327 2.97436H13.0715V2.2959C13.0715 1.08291 12.0847 0.0960693 10.8717 0.0960693H6.91612C5.70312 0.0960693 4.71628 1.08291 4.71628 2.2959V2.97436H0.555099C0.246711 2.97436 0 3.22107 0 3.52946C0 3.83785 0.246711 4.08456 0.555099 4.08456H1.55839V17.1273C1.55839 18.7638 2.89062 20.0961 4.52714 20.0961H13.2607C14.8972 20.0961 16.2294 18.7638 16.2294 17.1273V4.08456H17.2327C17.5411 4.08456 17.7878 3.83785 17.7878 3.52946C17.7878 3.22107 17.5411 2.97436 17.2327 2.97436ZM5.82648 2.2959C5.82648 1.69558 6.31579 1.20627 6.91612 1.20627H10.8717C11.472 1.20627 11.9613 1.69558 11.9613 2.2959V2.97436H5.82648V2.2959ZM15.1192 17.1273C15.1192 18.1512 14.2845 18.9859 13.2607 18.9859H4.52714C3.50329 18.9859 2.66859 18.1512 2.66859 17.1273V4.08456H15.1234V17.1273H15.1192Z" fill="#C4C4C4"/>
<path d="M8.89494 16.9957C9.20333 16.9957 9.45004 16.749 9.45004 16.4406V6.62978C9.45004 6.32139 9.20333 6.07468 8.89494 6.07468C8.58655 6.07468 8.33984 6.32139 8.33984 6.62978V16.4365C8.33984 16.7449 8.58655 16.9957 8.89494 16.9957Z" fill="#C4C4C4"/>
<path d="M5.27092 16.3831C5.57931 16.3831 5.82602 16.1364 5.82602 15.828V7.23836C5.82602 6.92997 5.57931 6.68326 5.27092 6.68326C4.96253 6.68326 4.71582 6.92997 4.71582 7.23836V15.828C4.71582 16.1364 4.96664 16.3831 5.27092 16.3831Z" fill="#C4C4C4"/>
<path d="M12.5165 16.3831C12.8249 16.3831 13.0716 16.1364 13.0716 15.828V7.23836C13.0716 6.92997 12.8249 6.68326 12.5165 6.68326C12.2081 6.68326 11.9614 6.92997 11.9614 7.23836V15.828C11.9614 16.1364 12.2081 16.3831 12.5165 16.3831Z" fill="#C4C4C4"/>
</svg>
