<svg xmlns="http://www.w3.org/2000/svg" width="36" height="36" viewBox="0 0 36 36">
    <g fill="none" fill-rule="evenodd">
        <rect  width="34" height="34" x="1" y="1" stroke="#000" stroke-width="2" rx="10"/>
        <g fill="#000">
            <path  d="M18 9c-4.963 0-9 4.037-9 9s4.037 9 9 9c4.962 0 9-4.037 9-9s-4.038-9-9-9zm0 14.9a5.907 5.907 0 0 1-5.901-5.9A5.908 5.908 0 0 1 18 12.097a5.908 5.908 0 0 1 5.901 5.901c0 3.255-2.648 5.9-5.901 5.9zM28 6a2.006 2.006 0 0 0-2 2c0 .526.215 1.042.588 1.415.37.37.886.585 1.412.585.527 0 1.041-.214 1.414-.585.373-.373.586-.89.586-1.415a2.01 2.01 0 0 0-.586-1.415A2.007 2.007 0 0 0 28 6z"/>
        </g>
    </g>
</svg>
