<svg id="Layer_1" height="512" viewBox="0 0 128 128" width="512" xmlns="http://www.w3.org/2000/svg" data-name="Layer 1">
    <path fill="#fff"  d="m107.163 91.6a1.734 1.734 0 0 0 -.172-.35c-5.463-11.108-17.01-34.194-41.428-82.541a1.751 1.751 0 0 0 -3.125 0c-24.419 48.349-35.966 71.435-41.429 82.543a1.746 1.746 0 0 0 -.172.35c-4.737 9.631-4.737 9.943-4.737 10.198 0 8.135 22.552 18.454 47.9 18.454s47.9-10.319 47.9-18.454c0-.255 0-.567-4.737-10.2zm-38.093-68.168c2.323 4.607 4.872 9.664 7.522 14.928a9.609 9.609 0 0 1 -7.522-14.928zm-5.07-10.049 3.322 6.583a13.138 13.138 0 0 0 9.787 21.92c.408 0 .818-.022 1.228-.061 9.1 18.088 19.046 37.89 24.937 49.769-7.672 4.9-22.316 9.584-39.274 9.584s-31.6-4.687-39.274-9.584c6.081-12.262 16.474-32.965 25.813-51.51a5.325 5.325 0 1 0 4.988-7.167 5.258 5.258 0 0 0 -1.5.241c3.762-7.467 7.219-14.321 9.973-19.775zm-10.306 24.867a1.833 1.833 0 1 1 1.833 1.833 1.835 1.835 0 0 1 -1.833-1.833zm10.306 78.5c-25.148 0-43.662-10.088-44.376-14.686.39-.888 1.656-3.5 3.542-7.316 8.235 5.11 23.43 9.93 40.834 9.93s32.6-4.82 40.834-9.93c1.885 3.82 3.152 6.428 3.542 7.316-.714 4.598-19.228 14.686-44.376 14.686z"/>
    <path fill="#fff" d="m46.333 71.919a8.917 8.917 0 1 0 8.917 8.916 8.927 8.927 0 0 0 -8.917-8.916zm0 14.333a5.417 5.417 0 1 1 5.417-5.417 5.422 5.422 0 0 1 -5.417 5.417z"/>
    <path fill="#fff" d="m58.968 52.412a1.752 1.752 0 0 0 -.4 1.662l3.674 13.034a1.751 1.751 0 0 0 2.971.713l9.611-10.408a1.75 1.75 0 0 0 -.947-2.9l-13.284-2.63a1.747 1.747 0 0 0 -1.625.529zm11.164 4.924-5.368 5.813-2.052-7.28z"/>
    <path fill="#fff" d="m72.909 85.87 9.319 9.32a1.749 1.749 0 0 0 2.475 0l9.32-9.32a1.749 1.749 0 0 0 0-2.475l-9.32-9.32a1.8 1.8 0 0 0 -2.475 0l-9.319 9.325a1.749 1.749 0 0 0 0 2.47zm10.557-8.083 6.846 6.846-6.846 6.846-6.845-6.846z"/>
</svg>