<svg xmlns="http://www.w3.org/2000/svg" xmlns:xlink="http://www.w3.org/1999/xlink" width="40" height="40" viewBox="0 0 40 40">
    <defs>
        <path id="a" d="M.018.22h39.761V40H.018z"/>
    </defs>
    <g fill="none" fill-rule="evenodd">
        <g>
            <mask id="b" fill="#fff">
                <use xlink:href="#a"/>
            </mask>
            <path fill="#3C3C3C" d="M28.802.22H10.978C4.924.22 0 5.146 0 11.2v17.823C0 35.076 4.924 40 10.978 40h17.824c6.053 0 10.977-4.925 10.977-10.978V11.2C39.78 5.145 34.855.22 28.802.22zm7.448 28.802c0 4.108-3.34 7.449-7.448 7.449H10.978c-4.108 0-7.449-3.341-7.449-7.449V11.2c0-4.108 3.341-7.449 7.449-7.449h17.824c4.107 0 7.448 3.341 7.448 7.449v17.823z" mask="url(#b)"/>
        </g>
        <path fill="#3C3C3C" d="M19.89 9.861c-5.653 0-10.25 4.598-10.25 10.25s4.597 10.25 10.25 10.25c5.651 0 10.25-4.598 10.25-10.25S25.541 9.86 19.89 9.86zm0 16.97a6.728 6.728 0 0 1-6.721-6.72 6.729 6.729 0 0 1 6.72-6.722 6.729 6.729 0 0 1 6.722 6.721 6.728 6.728 0 0 1-6.721 6.72zM30.57 6.868c-.68 0-1.348.275-1.828.757a2.598 2.598 0 0 0-.76 1.832c0 .68.277 1.347.76 1.83.48.48 1.148.757 1.828.757a2.61 2.61 0 0 0 1.83-.757 2.608 2.608 0 0 0 .758-1.83 2.6 2.6 0 0 0-.758-1.832 2.598 2.598 0 0 0-1.83-.757z"/>
    </g>
</svg>
