<svg xmlns="http://www.w3.org/2000/svg" width="26" height="26" viewBox="0 0 26 26">
    <path fill="#FFF" fill-rule="nonzero" d="M23.646 6.63H20.732c1.038-.662 1.72-1.75 1.72-2.98 0-2.013-1.82-3.65-4.055-3.65C16.5 0 14.254 3.299 13 5.43 11.746 3.3 9.5 0 7.602 0 5.367 0 3.548 1.638 3.548 3.65c0 1.23.681 2.318 1.72 2.98H2.355C1.056 6.63 0 7.702 0 9.02v3.786c0 .938.537 1.75 1.314 2.14v8.666C1.314 24.928 2.37 26 3.668 26h18.838c1.298 0 2.354-1.072 2.354-2.39v-8.762A2.393 2.393 0 0 0 26 12.806V9.02c0-1.317-1.056-2.389-2.354-2.389zM2.355 13.018a.211.211 0 0 1-.21-.212V9.019c0-.117.094-.212.21-.212h9.572v4.21H2.355zm11.718-4.211h9.573c.115 0 .21.095.21.212v3.786a.211.211 0 0 1-.21.212h-9.573v-4.21zm4.324-6.63c1.035 0 1.91.675 1.91 1.473 0 .8-.875 1.474-1.91 1.474h-2.65c1.086-1.59 2.2-2.853 2.65-2.947zM7.573 2.175c.472.096 1.592 1.36 2.679 2.95h-2.65c-1.035 0-1.91-.675-1.91-1.474 0-.799.875-1.474 1.88-1.476zM3.459 23.612v-8.418h8.468v8.63H3.668a.21.21 0 0 1-.209-.212zm19.047.212h-8.433v-8.63h8.642v8.417a.211.211 0 0 1-.21.213z"/>
</svg>
