<svg xmlns="http://www.w3.org/2000/svg" xmlns:xlink="http://www.w3.org/1999/xlink" width="155" height="190" viewBox="0 0 155 190">
    <defs>
        <path id="a" d="M.495.104h77.99v95.89H.495z"/>
        <path id="c" d="M0 .074h154.718v85.807H0z"/>
    </defs>
    <g fill="none" fill-rule="evenodd">
        <path fill="#F2B22F" d="M107.447 117.977l.12 5.074-1.328 1.207-1.571-.483-19.207 46.99-.12 1.932-.967 1.812-1.45.12-5.084 13.651-1.74-2.053s-1.721-5.678-3.383-5.195c-1.661.483-1.84-3.866-1.811-5.678.027-1.81-3.022-7.248-3.022-7.248l-8.576-20.292s-.025 2.416-1.692 2.657c-1.664.242-1.448-4.349-1.448-4.349l.12-6.643-11.354-27.904 3.986-1.69 21.261-3.625 11.535-.362 12.926 1.329 14.979 3.866-2.174 6.884z"/>
        <path fill="#E45721" d="M66.497 131.867c-5.554 0-10.055-4.65-10.055-10.387 0-5.736 4.5-10.387 10.055-10.387 5.554 0 10.056 4.651 10.056 10.387 0 5.737-4.502 10.387-10.056 10.387m32.888 5.437c-1.57 4.968-1.926 3.927-3.055 7.127-.238.675-1.425.243-2.17.243-5.555 0-10.058-4.652-10.058-10.39 0-5.736 4.503-10.388 10.058-10.388 3.543 0 6.66 1.894 8.45 4.756 1.017 1.623-2.6 6.673-3.225 8.652M73.2 166.9c-5.286 0-9.572-4.543-9.572-10.147 0-5.603 4.286-10.145 9.572-10.145 5.287 0 9.572 4.542 9.572 10.145 0 5.604-4.285 10.147-9.572 10.147m41.827-61.244c-.944 3.14-3.382 5.075-3.382 5.075s-3.407.603-5.92-.484c-2.511-1.088-19.24-5.195-30.623-4.349-11.38.846-24.981 3.261-28.144 4.711-.752.344-1.42.546-2.016.62-1.914.245-3.115-.803-4.146-2.553-1.35-2.294-2.536-6.281-.241-7.73 0 0 23.204-7.732 37.375-7.249 14.173.484 34.055 6.04 35.164 6.644 1.11.604 2.877 2.175 1.933 5.315"/>
        <path fill="#EFCFC6" d="M61.573 116.77a.635.635 0 1 1 0-1.27.635.635 0 0 1 0 1.27zm8.002-.421c-.334 0-.605-.312-.605-.696 0-.385.27-.696.605-.696.334 0 .604.311.604.696 0 .384-.27.696-.604.696zm-1.84 5.677a.514.514 0 1 1 0-1.028.514.514 0 0 1 0 1.028zm1.54 6.4a.604.604 0 1 1 0-1.208.604.604 0 0 1 0 1.208zm20.929 2.777c-.284 0-.514-.284-.514-.634 0-.35.23-.634.514-.634.282 0 .513.284.513.634 0 .35-.23.634-.513.634zm2.022 6.042c-.301 0-.545-.298-.545-.664 0-.368.244-.664.545-.664.3 0 .544.296.544.664 0 .366-.244.664-.544.664zm4.408-7.492c-.267 0-.483-.242-.483-.543 0-.3.216-.543.483-.543s.484.243.484.543c0 .3-.217.543-.484.543zm-28.958 25.791c-.285 0-.514-.257-.514-.572 0-.316.23-.573.514-.573.283 0 .513.257.513.573 0 .315-.23.572-.513.572zm1.235 6.1c-.366 0-.663-.216-.663-.484 0-.266.297-.484.663-.484.368 0 .664.218.664.484 0 .268-.296.485-.664.485zm5.62-.362c-.233 0-.424-.203-.424-.453s.19-.452.423-.452c.234 0 .423.201.423.452 0 .25-.189.453-.423.453zm2.382-3.02c-.249 0-.451-.243-.451-.542 0-.3.202-.545.451-.545.25 0 .453.244.453.545 0 .3-.203.542-.453.542zM55.684 125.83l.484-1.812-1.571.967-.846 1.45.725 1.69 3.504 5.435-3.745 1.571-5.799-14.736 5.558-1.209 2.627.989v4.052l.778 2.182.459 1.112h-1.57l-.604-1.69zm33.703 26.454l-1.389 1.148s-1.087.302-1.329.302c-.24 0-.603-.785-.724-1.088-.121-.301.422-1.268.422-1.268l.907-1.268s-.725 0-2.235.06c-1.51.06-.845 3.624-.845 3.624l1.389 5.496-5.678.906s-.363-5.073-.302-6.22c.06-1.148-.484-2.84-2.598-2.84s-.785 1.209-.785 1.209l1.62 1.328v1.148s-1.862.423-2.103.423c-.242 0-1.873-.967-1.873-.967s-1.147-2.596-1.027-5.376c.122-2.778 5.86-4.952 5.86-4.952s3.925-.302 5.919-.181c1.993.122 4.953 3.201 5.013 3.563.06.363.423 2.961.423 3.322 0 .362-.665 1.631-.665 1.631zm7.21-33.763c-.118.347-1.036 2.804-1.209 3.123-.172.32-1.36 1.119-1.36 1.119l-1.767.348s-1.1-.252-1.313-.367c-.212-.114-.158-.978-.12-1.3.037-.324.975-.915.975-.915l1.4-.685s-.637-.344-1.994-1.01c-1.358-.666-2.468 2.786-2.468 2.786l-1.393 5.494-5.425-1.904s2.095-4.635 2.694-5.615c.6-.981.926-2.727-.934-3.733-1.859-1.005-1.265.69-1.265.69l.791 1.939-.546 1.009s-1.838-.514-2.05-.629c-.211-.114-1.187-1.74-1.187-1.74s.226-2.83 1.655-5.217c1.427-2.386 7.51-1.569 7.51-1.569s3.597 1.602 5.292 2.657c1.695 1.054 2.832 5.172 2.714 5.52z"/>
        <g transform="translate(37.87 93.278)">
            <mask id="b" fill="#fff">
                <use xlink:href="#a"/>
            </mask>
            <path fill="#000" d="M76.937 15.4a5.06 5.06 0 0 1-4.212 3.122v.003l-1.826 4.426a7.463 7.463 0 0 0-.573 2.875v3.765c0 .177-.024.362-.074.563l-.008.025a2.11 2.11 0 0 1-.548.927 2.143 2.143 0 0 1-2.365.452l-1.703 4.107-6.304 15.22-6.847 16.536-3.965 9.544a6.913 6.913 0 0 0-.525 2.64v.387c0 .197-.03.393-.092.6a2.096 2.096 0 0 1-1.889 1.523c-.005 0-.009 0-.015.002l-5.542 13.37a.634.634 0 0 1-.359.35l-.291.114a.643.643 0 0 1-.47-.002l-.284-.113a.643.643 0 0 1-.355-.35l-3.006-7.269a2.134 2.134 0 0 1-2.679-.285 2.15 2.15 0 0 1-.54-.936 1.956 1.956 0 0 1-.08-.577v-1.014c0-2.36-.453-4.649-1.346-6.801l-9.155-22.136-.014.048a2.123 2.123 0 0 1-2.05 1.551 2.121 2.121 0 0 1-1.52-.637 2.093 2.093 0 0 1-.544-.93 2.053 2.053 0 0 1-.077-.575v-6.728c0-1.924-.373-3.8-1.106-5.582l-.517-1.244L6.883 20.19l-.627-1.534-.003-.007a5.056 5.056 0 0 1-4.215-3.126L.844 12.636a4.479 4.479 0 0 1 .028-3.53 4.454 4.454 0 0 1 2.542-2.42 103.183 103.183 0 0 1 72.142-.142 4.454 4.454 0 0 1 2.55 2.417 4.491 4.491 0 0 1 .03 3.542l-1.199 2.898zM57.932 50.049c.057-.008.118-.017.175-.027l.074-.014 6.02-14.527c-.026-.037-.051-.076-.078-.113a8.314 8.314 0 0 0-.353-.465 8.726 8.726 0 0 0-.551-.622 10.799 10.799 0 0 0-.412-.4 9.416 9.416 0 0 0-.244-.214c-.064-.053-.125-.106-.19-.158a14.158 14.158 0 0 0-.454-.344 8.525 8.525 0 0 0-.254-.172 9.706 9.706 0 0 0-.235-.152c-.075-.046-.15-.09-.225-.134a8.138 8.138 0 0 0-.512-.274c-.083-.041-.166-.084-.25-.122a8.174 8.174 0 0 0-.285-.123c-.082-.035-.164-.071-.247-.103l-.261-.094c-.091-.032-.182-.064-.274-.094-.095-.03-.19-.056-.287-.083-.086-.025-.174-.051-.262-.073-.107-.027-.214-.049-.322-.072-.077-.017-.154-.036-.231-.05a9.108 9.108 0 0 0-.447-.072c-.04-.004-.077-.011-.116-.018-.123-.015-.25-.024-.375-.036-.076-.006-.15-.015-.225-.019a9.209 9.209 0 0 0-6.308 1.953c-.317.249-.6.5-.865.764a9.653 9.653 0 0 0-.345.366c-.048.053-.092.106-.137.16a7.215 7.215 0 0 0-.213.253c-.037.045-.07.09-.105.136a8.401 8.401 0 0 0-.21.283l-.106.148c-.062.092-.122.186-.183.28-.032.052-.067.102-.097.154a7.487 7.487 0 0 0-.467.875c-.03.063-.057.127-.086.19a8.873 8.873 0 0 0-.292.753c-.025.073-.05.145-.072.219a9.851 9.851 0 0 0-.078.262c-.02.07-.041.141-.058.212a10.344 10.344 0 0 0-.195.983l-.022.172c-.012.11-.025.218-.036.33a9.362 9.362 0 0 0-.03.51 6.48 6.48 0 0 0-.004.518c.002.08.003.161.007.24.004.098.012.198.02.296.358 4.646 4.117 8.351 8.782 8.61.018 0 .035.002.052.003a9.25 9.25 0 0 0 .94 0c.049-.002.1-.007.148-.01a12.526 12.526 0 0 0 .499-.046c.094-.01.188-.025.282-.039zM43.381 22.766c.098-.32.314-.586.607-.744.297-.163.639-.196.965-.096l1.272.387a2.737 2.737 0 0 1 1.842 3.372c-.442 1.512-1.292 3.565-2.527 6.114l3.723 1.117c.146-.134.301-.269.46-.401.352-2.532.752-4.543 1.192-5.968a2.737 2.737 0 0 1 3.401-1.799l1.272.379c.332.102.599.324.757.625.156.297.186.637.086.955a1.257 1.257 0 0 1-1.556.84l-.084-.023c-.358-.095-.728.05-.865.338a.708.708 0 0 0-.009.596.692.692 0 0 0 .433.38 2.453 2.453 0 0 0 1.89-.186 2.465 2.465 0 0 0 1.203-1.472l.548-1.827c1.415-4.692-6.08-7.014-6.157-7.036-.074-.023-7.598-2.217-9.008 2.465l-.549 1.825a2.49 2.49 0 0 0 1.66 3.1c.213.064.45.017.628-.125a.73.73 0 0 0 .27-.635c-.014-.265-.221-.5-.504-.577l-.086-.023c-.008-.002-.018-.004-.025-.007a1.26 1.26 0 0 1-.84-1.574zm9.287 4.503c.281-.595.83-.996 1.46-1.124l-.213-.064a1.341 1.341 0 0 0-1.672.878c-.343 1.111-.662 2.61-.955 4.473.016-.01.031-.016.048-.026a10.662 10.662 0 0 1 1.416-.659l.088-.032c.233-.086.469-.164.707-.233l.075-.02a11.651 11.651 0 0 1 .76-.185 4.219 4.219 0 0 1-.432-.106 2.07 2.07 0 0 1-1.3-1.143 2.11 2.11 0 0 1 .018-1.76zM39.57 94.265l5.082-12.257a1.91 1.91 0 0 1-.575-.403 1.915 1.915 0 0 1-.495-.843 1.778 1.778 0 0 1-.076-.54v-2.653a.602.602 0 0 0-.238-.478l-.073-.055a.586.586 0 0 0-.325-.116c-.179.137-.425.47-.549.834v3.36a2.147 2.147 0 0 1-2.14 2.143 2.128 2.128 0 0 1-1.511-.63 2.024 2.024 0 0 1-.542-.931 2.027 2.027 0 0 1-.079-.582v-1.316a.88.88 0 0 0-.047-.096.684.684 0 0 0-.974.337v6.087c0 .18-.03.363-.086.546a1.914 1.914 0 0 1-.274.577l2.902 7.016zM29.6 71.163a9.356 9.356 0 0 0 5.593 1.866c3.827 0 7.118-2.315 8.56-5.614l-1.685.23a.699.699 0 0 1-.56-.173.698.698 0 0 1-.229-.54c.1-3.15.033-5.567-.203-7.183a1.345 1.345 0 0 0-1.51-1.132l-.199.029a2.085 2.085 0 0 1 .904 3.206c-.337.443-.825.73-1.376.805a3.844 3.844 0 0 1-2.866-.754 3.855 3.855 0 0 1-1.493-2.562l-.257-1.891c-.162-1.185.05-2.207.504-3.086-4.465.194-8.194 3.55-8.828 7.984l3.645 8.815zm18.146-15.07l1.318-.18a1.25 1.25 0 0 1 .932.246c.268.204.44.5.486.834.045.332-.042.664-.245.932-.204.268-.5.441-.832.487l-.117.016a.69.69 0 0 0-.592.782.683.683 0 0 0 .266.459c.148.113.33.161.513.136a2.46 2.46 0 0 0 1.64-.959 2.47 2.47 0 0 0 .482-1.838l-.258-1.892c-.66-4.84-8.416-3.853-8.511-3.84-.117.016-7.831 1.152-7.173 5.985l.258 1.891c.09.658.43 1.24.958 1.642a2.46 2.46 0 0 0 1.835.484.691.691 0 0 0 .458-.269.695.695 0 0 0-.646-1.109l-.116.017a1.261 1.261 0 0 1-.341-2.5l1.318-.179a2.742 2.742 0 0 1 3.073 2.31c.227 1.55.306 3.77.24 6.606l4.25-.581c-.823-2.715-1.34-4.875-1.538-6.429a2.743 2.743 0 0 1 2.342-3.05zM17.05 41.125l2.254-1.207c-1.723-2.256-2.963-4.099-3.691-5.482a2.757 2.757 0 0 1 1.127-3.682l1.182-.63c.087-.047.178-.079.273-.103-.08-.53-.123-1.072-.123-1.623 0-.486.036-.963.098-1.432-1.608-.835-3.746-.484-5.49.082-.486.155-.917.322-1.26.465l5.63 13.612zM8.17 19.66l2.717 6.569c.373-.155.838-.337 1.366-.506 2.483-.804 4.588-.842 6.202-.157 1.245-4.544 5.408-7.895 10.342-7.895 5.914 0 10.725 4.812 10.725 10.727S34.71 39.125 28.796 39.125a10.71 10.71 0 0 1-8.538-4.246 2.087 2.087 0 0 1-2.765-.88 2.062 2.062 0 0 1-.16-1.581c.059-.193.142-.373.249-.536l-.182.097a1.355 1.355 0 0 0-.555 1.81c.757 1.441 2.122 3.436 4.059 5.927a.695.695 0 0 1 .13.573.694.694 0 0 1-.351.469l-3.1 1.66.275.664a15.962 15.962 0 0 1 1.212 6.115v6.728a.725.725 0 0 0 .222.529c.14.145.325.22.528.22.334 0 .626-.22.711-.536a.817.817 0 0 0 .038-.213V47.641c0-.062.01-.125.025-.185a2.14 2.14 0 0 1 2.054-1.563c.957 0 1.805.643 2.06 1.563.018.06.027.123.027.185v5.307a.61.61 0 0 0 .022.185l.01.035c.028.109.092.219.181.308a.741.741 0 0 0 .528.213.747.747 0 0 0 .75-.741v-7.086a2.086 2.086 0 0 1 3.34-1.666c.516.39.825 1.011.825 1.66v2.095c0 .06.01.128.03.212a.693.693 0 0 0 .181.305c.006.007.011.014.018.019.13.134.314.207.52.207a.74.74 0 0 0 .715-.53.753.753 0 0 0 .035-.213.696.696 0 1 1 1.391 0c0 .196-.029.391-.09.598a2.131 2.131 0 0 1-2.05 1.536c-.583 0-1.118-.219-1.51-.62a2.093 2.093 0 0 1-.549-.926l-.007-.024a2.32 2.32 0 0 1-.076-.564v-2.096a.688.688 0 0 0-1.106-.544.697.697 0 0 0-.276.551v7.086c0 .178-.023.358-.075.562a2.15 2.15 0 0 1-2.066 1.572 2.123 2.123 0 0 1-2.132-2.134v-5.195a.751.751 0 0 0-.696-.466.744.744 0 0 0-.688.465v5.256l3.037 7.345a10.736 10.736 0 0 1 10.196-7.388c.199 0 .397.01.593.021 1.83-1.88 4.861-2.817 6.854-3.09 3.189-.436 9.398.055 10.077 5.031l.258 1.891a3.86 3.86 0 0 1-.753 2.87 3.848 3.848 0 0 1-2.558 1.496 2.066 2.066 0 0 1-1.543-.406 2.075 2.075 0 0 1-.804-1.38 2.076 2.076 0 0 1 .814-1.952l-.196.027c-.727.1-1.244.77-1.151 1.496.205 1.62.786 3.966 1.727 6.974a.696.696 0 0 1-.57.898l-2.61.357c-1.456 4.198-5.448 7.221-10.138 7.221-1.692 0-3.365-.41-4.865-1.174l1.996 4.826a19.034 19.034 0 0 1 1.451 7.334v1.014a.6.6 0 0 0 .023.179l.009.033c.03.114.097.227.193.328.25.25.737.274 1.001.035a.775.775 0 0 0 .237-.375.669.669 0 0 0 .037-.2v-6.736c0-.063.008-.126.025-.186a2.139 2.139 0 0 1 2.054-1.562c.864 0 1.64.536 1.972 1.326.096.155.177.32.229.498a.634.634 0 0 1 .026.178v1.314a.59.59 0 0 0 .03.208.6.6 0 0 0 .167.278l.012.011a.74.74 0 0 0 1.14-.635V77.65a.6.6 0 0 1 .026-.176 1.875 1.875 0 0 1 1.056-1.647c.286-.221.62-.366.998-.366.957 0 1.804.642 2.06 1.562.017.06.027.123.027.186v2.784a.725.725 0 0 0 .21.519.71.71 0 0 0 .507.225.55.55 0 0 1 .075-.008.719.719 0 0 0 .67-.522.738.738 0 0 0 .036-.214v-.386c0-1.087.213-2.154.633-3.173l3.965-9.546 6.371-15.389c-.094.01-.19.014-.283.021-.066.004-.13.01-.193.013a11.723 11.723 0 0 1-1.083.003c-.038-.003-.077-.007-.117-.008a10.34 10.34 0 0 1-.438-.034l-.042-.004c-4.825-.493-8.724-4.12-9.47-8.989a9.963 9.963 0 0 1-.075-.594l-.012-.159c-.041-.476-.052-.95-.033-1.417l.002-.065c.007-.127.018-.256.028-.381.006-.057.01-.113.014-.17.012-.116.029-.232.044-.348.008-.062.015-.126.024-.188.019-.127.042-.253.065-.38l.026-.135a16.006 16.006 0 0 1 .123-.54c.028-.11.06-.22.091-.328.018-.063.036-.126.055-.187.035-.114.072-.226.111-.34l.057-.155c.04-.115.084-.227.13-.34.022-.057.047-.114.071-.17.044-.102.087-.202.133-.302l.097-.204c.046-.093.092-.186.14-.278.036-.067.073-.131.11-.198.049-.089.097-.18.151-.268.042-.072.087-.143.131-.215l.15-.236.152-.222c.056-.078.11-.157.167-.235.053-.072.109-.141.164-.212.046-.06.092-.122.14-.182l-3.84-1.156a.696.696 0 0 1-.422-.975c1.396-2.821 2.34-5.05 2.8-6.624a1.34 1.34 0 0 0-.907-1.65l-.159-.048c.326.339.531.786.558 1.273a2.118 2.118 0 0 1-.796 1.803c-.533.421-1.239.56-1.888.367a3.885 3.885 0 0 1-2.594-4.836l.547-1.824c1.448-4.81 7.66-4.325 10.743-3.398 3.085.931 8.537 3.962 7.088 8.772l-.549 1.825a3.846 3.846 0 0 1-2.271 2.483h.029c.215 0 .429.006.644.019.082.005.166.014.25.02.13.011.26.023.39.038l.276.038c.118.018.236.036.354.057a12.215 12.215 0 0 1 .895.202c.122.033.244.069.366.106.078.025.16.048.238.075.127.043.253.088.379.135.072.028.146.053.218.082.152.063.303.129.451.197.04.017.08.033.118.052.189.088.373.183.554.282.069.037.138.079.206.118.115.066.228.13.34.201l.212.139c.105.07.21.14.314.214.07.05.137.1.206.152.104.078.208.157.308.239.06.048.12.096.177.146a10.381 10.381 0 0 1 .786.733c.05.051.1.102.147.154.11.118.218.24.322.362.033.04.068.078.102.12l.035.04 1.438-3.473a2.121 2.121 0 0 1-.206-.92v-7.868a.69.69 0 0 0-1.108-.549.697.697 0 0 0-.276.553v2.095c0 .195-.03.392-.087.585-.093.346-.28.666-.541.928-.405.406-.942.63-1.512.63a2.16 2.16 0 0 1-2.058-1.544 2.034 2.034 0 0 1-.082-.6.695.695 0 1 1 1.39 0c0 .107.015.168.022.194a.766.766 0 0 0 .728.557.739.739 0 0 0 .72-.564.62.62 0 0 0 .03-.186v-2.095c0-.649.307-1.269.822-1.66a2.089 2.089 0 0 1 2.51-.01c.522.392.833 1.014.833 1.666v7.868c0 .077.008.14.022.187l.008.024a.657.657 0 0 0 .109.228l.006.008.005.006a.73.73 0 0 0 .592.297.718.718 0 0 0 .52-.214l.019-.018a.692.692 0 0 0 .18-.306.953.953 0 0 0 .03-.212v-3.765c0-1.176.229-2.322.68-3.408l1.546-3.75a95.074 95.074 0 0 0-8.07-2.474 100.892 100.892 0 0 0-27.925-2.652c-1.567.07-3.033.17-4.484.307-1.318.117-2.745.275-4.496.5-1.272.18-2.33.34-3.323.506a88.946 88.946 0 0 0-3.299.613l-.048.008a100.037 100.037 0 0 0-3.753.844 96.146 96.146 0 0 0-7.946 2.478l.351.862zm13.193 14.375a9.322 9.322 0 0 0 7.434 3.7c5.147 0 9.334-4.188 9.334-9.337 0-5.148-4.187-9.336-9.334-9.336-4.433 0-8.15 3.107-9.097 7.256.018.016.036.035.054.05-.124.522-.19 1.134-.208 1.839l-.075-.112c-.003.101-.008.2-.008.303 0 .543.05 1.073.14 1.591a7.6 7.6 0 0 0 1.763 4.04.018.018 0 0 0-.003.006zm-2.478-1.546a.688.688 0 0 0 .588 1.199c-.22-.386-.417-.786-.588-1.199zM76.83 9.517a3.074 3.074 0 0 0-1.758-1.668 101.694 101.694 0 0 0-35.385-6.353A101.84 101.84 0 0 0 3.902 7.991a3.07 3.07 0 0 0-1.755 1.668 3.098 3.098 0 0 0-.018 2.443l1.194 2.888c.747 1.804 2.719 2.707 4.586 2.1a103.121 103.121 0 0 1 7.677-2.161 97.277 97.277 0 0 1 5.193-1.21l.048-.008c1.106-.217 2.107-.403 3.055-.568.93-.154 1.92-.304 3.12-.475 1.65-.21 2.986-.359 4.216-.467 1.35-.12 2.727-.214 4.208-.289a94.602 94.602 0 0 1 28.128 2.962c2.522.604 5.027 1.3 7.512 2.098 1.87.599 3.841-.305 4.586-2.104l1.199-2.898a3.109 3.109 0 0 0-.021-2.453zM23.923 21.879a1.018 1.018 0 1 1-1.018 1.017c0-.56.456-1.017 1.018-1.017zm0 1.39a.374.374 0 1 0 0-.747.374.374 0 0 0 0 .747zm6.058 4.025a1.018 1.018 0 1 1-.003 2.031 1.018 1.018 0 0 1 .003-2.03zm0 1.39a.373.373 0 1 0-.002-.745.373.373 0 0 0 .002.746zm1.582 4.904c.56 0 1.017.456 1.017 1.016a1.018 1.018 0 0 1-2.035 0c0-.56.457-1.016 1.018-1.016zm0 1.388a.373.373 0 1 0-.002-.746.373.373 0 0 0 .002.746zm-.697-12.724a1.018 1.018 0 0 1 2.035 0 1.018 1.018 0 0 1-2.035 0zm1.393 0a.375.375 0 0 0-.748 0 .373.373 0 1 0 .748 0zm4.281 5.095a.322.322 0 1 1 0 .644.322.322 0 0 1 0-.644zm-1.07 16.34a.696.696 0 0 1-.696-.696v-2.819a.696.696 0 1 1 1.39 0v2.82c0 .383-.31.695-.694.695zm-5.528 17.074a.934.934 0 1 1-.001 1.869.934.934 0 0 1 .001-1.869zm0 1.276a.343.343 0 1 0 0-.685.343.343 0 0 0 0 .685zm1.123 4.895c.515 0 .935.42.935.933a.935.935 0 1 1-.934-.934zm0 1.276a.344.344 0 0 0 .344-.343.344.344 0 0 0-.687 0c0 .19.155.343.343.343zm5.714-1.571c.515 0 .935.418.935.933a.935.935 0 0 1-1.868 0c0-.515.418-.933.933-.933zm0 1.275a.342.342 0 1 0 .002-.685.342.342 0 0 0-.002.685zm2.411-4.377a.934.934 0 1 1 0 1.868.934.934 0 0 1 0-1.868zm0 1.275a.342.342 0 1 0 .001-.684.342.342 0 0 0 0 .684zm19.675-29.916a1.017 1.017 0 1 1-1.017 1.016c0-.56.456-1.016 1.017-1.016zm0 1.39a.373.373 0 1 0-.002-.747.373.373 0 0 0 .002.746zm-4.414 8.039a1.017 1.017 0 0 1 0-2.033 1.017 1.017 0 0 1 0 2.033zm0-1.39a.373.373 0 1 0 0 0zm-2.01-4.59a1.019 1.019 0 0 1-1.019-1.016 1.018 1.018 0 0 1 2.035 0c0 .56-.457 1.016-1.017 1.016zm0-1.389a.373.373 0 1 0 0 .747.373.373 0 0 0 0-.747z" mask="url(#b)"/>
        </g>
        <path fill="#F2B22F" d="M56.718 159.457a.682.682 0 0 0 .682-.678c-.003-.237-.303-.964-.682-1.75-.38.786-.68 1.513-.683 1.75 0 .373.306.678.683.678"/>
        <g transform="translate(0 .807)">
            <mask id="d" fill="#fff">
                <use xlink:href="#c"/>
            </mask>
            <path fill="#FEFEFE" d="M154.625 48.4l-9.895 11.102-2.488 8.156-5.282-1.614 2.489-8.154-2.071-14.757.092-.305 5.648 1.725.505 4.795c.125 1.34.054 2.887.014 4.111l.061.019c.629-1.077 1.424-2.37 2.307-3.402l3.127-3.687 5.586 1.707-.093.305zm-24.804 7.097l2.15 8.695-.055.282-5.918-1.174-1.458-7.417-2.067-.41-1.359 6.86-5.417-1.074 4.337-21.897 7.734 1.534c4.446.881 6.775 4.566 5.856 9.203-.527 2.5-1.575 4.342-3.803 5.398zm-3.064-9.658l-2.38-.472-1.074 5.42 2.38.472c1.315.26 2.409-.663 2.738-2.323.315-1.597-.349-2.836-1.664-3.097zm-17.782 14.573l-.67-2.873-6.31-.72-1.298 2.647-5.74-.656.04-.348 11.062-21.204 2.726.311 5.905 23.143-.04.349-5.675-.65zm-2.606-14.054c-.693 2.138-1.035 3.16-2.305 6.133l3.202.366c-.68-3.325-.772-4.492-.897-6.5zM103.96 23.68c-.585.512-1.681.512-2.56.512-.877 0-1.753.658-1.753.658s.511-.73.73-1.243c.22-.511 1.682-.292 2.414-.292.73 0 2.046-1.024 2.046-1.024s-.292.878-.877 1.389zm-8.93-.406c-.688.563-1.234.985-1.636 1.267-1.915 1.348-3.647 2.04-5.198 2.081-1.038 0-1.673-.442-1.908-1.325-.62.265-1.153.408-1.595.42-1.111 0-1.695-.522-1.752-1.569 0-.18.02-.426.057-.738.039-.311.096-.699.173-1.162a1.124 1.124 0 0 0-.66.21c-.058.04-.36.268-.905.68-.545.412-1.327 1.021-2.341 1.825a18.58 18.58 0 0 1-1.363.965c-.355.221-.628.343-.82.363-.114 0-.2-.11-.257-.332 0-.181.09-.438.272-.77.183-.332.445-.77.789-1.312.614-.905 1.111-1.63 1.494-2.172.382-.543.632-.915.746-1.116.88-1.468 1.957-3.028 3.23-4.678a99.4 99.4 0 0 1 4.438-5.308c3.6-4.104 6.049-6.185 7.352-6.247.46 0 .88.151 1.263.453.383.282.575.624.575 1.027 0 .824-.9 2.353-2.7 4.584-1.647 2.013-3.288 3.772-4.924 5.28-1.638 1.509-3.3 2.787-4.984 3.833-.287.201-.574.392-.86.573-.287.182-.585.362-.891.543-.574.382-1.417.815-2.527 1.297l-1.636 2.535c.152-.1.636-.428 1.45-.98.812-.554 1.967-1.353 3.46-2.4 1.052-.724 1.77-1.096 2.154-1.116.268 0 .402.15.402.453 0 .04-.062.166-.187.377-.124.211-.33.519-.618.92-.497.745-.747 1.368-.747 1.87 0 .182.005.344.015.484.01.14.043.26.1.362.076.12.202.201.374.24.172.041.392.081.66.121.148 0 .371-.074.666-.218-.002-.038-.005-.074-.006-.113 0-.886.49-1.92 1.465-3.108 1.034-1.126 1.915-1.7 2.643-1.72.248 0 .467.102.66.302.164.153.264.344.308.568l.006.025.002.01v.003c.031.165.02.466.008.618-.01.158-.15.463-.364.659-.531.722-1.125 1.075-1.316 1.316-.306.282-.286.2-.64.482-.354.282-.742.573-1.163.875-.082.05-.162.095-.243.141.093.23.249.434.472.613.327.221.68.331 1.063.331.996 0 2.48-.673 4.451-2.02.192-.14.603-.454 1.235-.936a188.31 188.31 0 0 0 2.586-2.021.602.602 0 0 1 .2-.03c.058 0 .096.06.115.18a.538.538 0 0 1-.115.332 82.107 82.107 0 0 1-2.527 2.173zm-9.333-5.34a67.653 67.653 0 0 0 3.547-3.018 49.65 49.65 0 0 0 3.117-3.107c2.163-2.433 3.263-4.314 3.302-5.642 0-.583-.316-.875-.947-.875-.804 0-1.982.754-3.534 2.263a49.369 49.369 0 0 0-1.765 1.99c-.717.845-1.575 1.871-2.57 3.079a346.12 346.12 0 0 1-2.528 3.183 98.39 98.39 0 0 0-1.607 2.037 40.38 40.38 0 0 0-1.408 2.036c-.325.512-.527.9-.602 1.161.841-.14 2.507-1.176 4.995-3.108zm2.355 5.008c1.245-.765 1.896-1.448 1.953-2.051 0-.101-.124-.182-.373-.242-.326 0-.756.312-1.293.935-.535.564-.804 1.067-.804 1.509.097 0 .269-.05.517-.151zM86.36 6.41c-1.471.39-5.693-.41-7.216-1.029-2.987 4.264-5.463 7.747-7.617 10.683-2.154 2.937-3.89 5.2-5.212 6.788a53.824 53.824 0 0 1-1.953 2.173 45.118 45.118 0 0 1-1.981 1.961c-1.398 1.227-2.365 1.86-2.901 1.9-.363 0-.555-.262-.574-.783 0-.242.159-.724.33-1.005.231-.281.46-.432.691-.453.038 0 .143.04.315.122.116.059.616-.049.847-.028.133 0 .362-.146 1.492-1.172a32.98 32.98 0 0 0 1.652-1.674c.507-.553.99-1.11 1.451-1.674a191.322 191.322 0 0 0 5.944-7.694 451.116 451.116 0 0 0 6.72-9.412c-3.852-1.56-5.956-2.577-7.976-3.17-1.214-.356-2.93-.595-3.483-.603-7.237 0-10.875 2.103-10.913 6.306 0 1.429.622 2.645 1.866 3.65 1.225.966 2.7 1.46 4.424 1.48.402 0 .928-.076 1.58-.227.65-.15 1.444-.366 2.382-.648.21-.08.374-.1.49-.06.076.02.084.12.027.3-2.106 1.047-3.876 1.57-5.311 1.57-1.762 0-3.313-.562-4.654-1.686-.67-.542-1.162-1.139-1.478-1.791a5.45 5.45 0 0 1-.532-2.124c0-2.347 1.206-4.273 3.62-5.78C60.76.826 63.862.074 67.692.074c1.063 0 3.188.291 5.894 1.138 1.725.54 3.545 1.387 5.938 2.271.669-.784 1.257-1.361 1.765-1.734.507-.372.934-.569 1.278-.589.077 0 .116.081.116.242 0 .04-.288.292-.862.754a6.504 6.504 0 0 0-.82.77c-.22.251-.425.508-.617.769.326.161.867.327 1.622.497.757.172 1.748.389 2.974.65 2.067.402 3.1.693 3.1.875-.096.1-.325.25-.688.452a3.727 3.727 0 0 1-1.034.242zM53.59 23.68c-.585.513-1.681.513-2.558.513-.876 0-1.754.658-1.754.658s.511-.73.731-1.243c.22-.511 1.68-.292 2.412-.292.73 0 2.046-1.024 2.046-1.024s-.292.878-.877 1.389zm6.287 12.4l11.998-.294.124 5.076-6.51.16.079 3.193 5.934-.146.125 5.108-5.934.145.089 3.64 6.765-.167.131 5.332-12.253.301-.548-22.347zm20.75 22.18l-5.518-.21.858-22.466 1.945.075 7.094 9.954 7.833-9.384 1.946.074-.859 22.465-5.518-.21.387-10.116-3.787 4.65-.605-.024-3.39-4.924-.387 10.116zm27.226 7.518a498.16 498.16 0 0 1 5.761 19.803l-.033.3a328.186 328.186 0 0 0-4.993-.514 1113.6 1113.6 0 0 0-.647-2.454c-1.866-.173-3.732-.33-5.599-.472-.351.77-.7 1.54-1.046 2.31a347.693 347.693 0 0 0-5.061-.33l.017-.3a487.54 487.54 0 0 1 9.059-18.558c.847.068 1.695.14 2.542.215zm-.95 13.137c-.698-2.838-.82-3.837-.995-5.556-.561 1.85-.84 2.733-1.878 5.313.959.077 1.916.158 2.873.243zM95.506 84.38c-4.41-.246-8.826-.402-13.24-.471l.01-.712a454.282 454.282 0 0 1 6.624-13.94c-1.94-.067-3.88-.117-5.82-.15l.074-4.353c4.453.077 8.905.238 13.352.485l-.04.738a451.065 451.065 0 0 0-7.009 13.656c2.099.077 4.198.174 6.296.29l-.247 4.457zM80.94 79.427l-.05 4.463c-4.416-.05-8.833-.012-13.248.113l-.019-.711a458.58 458.58 0 0 1 6.005-14.22c-1.94.02-3.88.056-5.82.108-.04-1.45-.078-2.901-.117-4.353a351.8 351.8 0 0 1 13.358-.103l-.009.74a458.087 458.087 0 0 0-6.4 13.95c2.099-.015 4.2-.01 6.3.013zM56.534 69.365l-.24-4.046c2.96-.176 5.918-.314 8.88-.415l.136 4.05c-.623.021-1.247.044-1.872.069l.433 11.053c.672-.025 1.342-.05 2.012-.073l.136 4.05c-2.93.098-5.86.236-8.789.41l-.241-4.044c.66-.04 1.32-.078 1.982-.113l-.595-11.046c-.613.033-1.229.068-1.842.105zm-.125-26.145l-5.153.417c-.014-1.345-.95-2.23-2.255-2.124-1.303.106-2.069.936-1.966 2.21.08.986.869 1.627 2.605 1.71 4.074.087 7.731.977 8.17 6.387.345 4.266-2.553 7.223-7.262 7.605-4.805.39-8.158-2.287-8.389-6.721l5.217-.422c.08 1.371 1.174 2.243 2.701 2.119 1.464-.118 2.391-.931 2.288-2.203-.148-1.815-2.13-1.782-3.251-1.788-3.489.027-7.108-1.57-7.485-6.217-.352-4.361 2.418-7.309 6.873-7.67 4.518-.365 7.682 2.325 7.907 6.697zM42.308 85.67l-2-19.035c2.44-.257 4.88-.488 7.323-.694 4.298-.36 7.26 2.348 7.376 6.645.257 4.211-2.24 7.047-6.199 7.38-.71.06-1.419.12-2.127.185l.455 5.046c-1.61.145-3.22.302-4.828.472zm6.144-9.934c1.177-.098 1.894-1.28 1.765-2.946-.124-1.61-1.027-2.639-2.225-2.538-.758.064-1.518.13-2.276.2l.497 5.48a320.06 320.06 0 0 1 2.24-.196zM31.905 61.628c-5.8.917-10.395-3.012-11.472-9.825-1.076-6.814 2.083-11.969 7.884-12.887 5.77-.912 10.333 3.022 11.41 9.834 1.078 6.814-2.052 11.964-7.822 12.878zm2.337-12.01c-.558-3.533-2.577-5.67-5.068-5.275-2.553.403-3.877 3.069-3.319 6.602.56 3.532 2.645 5.693 5.2 5.289 2.49-.395 3.744-3.083 3.187-6.615zM21.579 62.63l.073.278-5.836 1.53-4.551-6.035-2.038.534L11 65.703l-5.34 1.4L0 45.512l7.626-2c4.384-1.15 8.088 1.147 9.286 5.718.617 2.479.479 4.596-1.063 6.518l5.73 6.883zm-9.856-12.172c-.412-1.575-1.552-2.399-2.848-2.058l-2.347.615 1.4 5.344 2.347-.615c1.296-.341 1.878-1.649 1.448-3.286z" mask="url(#d)"/>
        </g>
    </g>
</svg>
