<svg xmlns="http://www.w3.org/2000/svg" width="36" height="36" viewBox="0 0 36 36">
    <g fill="none" fill-rule="evenodd">
        <path fill="#DDD" d="M29 11.893c-.806.32-1.68.541-2.592.638.934-.5 1.645-1.292 1.987-2.237-.873.463-1.839.8-2.873.98-.819-.782-1.994-1.274-3.29-1.274-2.49 0-4.511 1.81-4.511 4.04 0 .318.041.624.115.92-3.754-.17-7.076-1.775-9.305-4.221a3.695 3.695 0 0 0-.612 2.032c0 1.4.8 2.64 2.008 3.36a4.846 4.846 0 0 1-2.04-.505v.049c0 1.959 1.557 3.593 3.617 3.967a5.172 5.172 0 0 1-2.04.066c.578 1.605 2.242 2.77 4.216 2.807-1.545 1.081-3.492 1.725-5.606 1.725-.362 0-.718-.019-1.074-.054C9 25.334 11.37 26 13.92 26c8.298 0 12.837-6.155 12.837-11.491l-.014-.524A8.629 8.629 0 0 0 29 11.893z"/>
        <rect width="34" height="34" x="1" y="1" stroke="#DDD" stroke-width="2" rx="10"/>
    </g>
</svg>
