<svg height="512pt" viewBox="0 -26 512 512" width="512pt" xmlns="http://www.w3.org/2000/svg"><path d="m482 180h-11.171875l-14.660156-117.265625c-2.101563-16.835937-9.484375-32.332031-20.789063-43.632813-12.492187-12.496093-28.378906-19.101562-45.9375-19.101562h-88.445312c-5.523438 0-10 4.476562-10 10s4.476562 10 10 10h5.003906v30h-100v-30h4.996094c5.523437 0 10-4.476562 10-10s-4.476563-10-10-10h-88.4375c-17.558594 0-33.445313 6.605469-45.9375 19.101562-11.304688 11.300782-18.683594 26.796876-20.789063 43.632813l-14.660156 117.265625h-11.171875c-16.542969 0-30 13.457031-30 30v20c0 13.40625 8.839844 24.785156 21 28.617188l19.078125 152.621093c3.585937 28.710938 24.117187 48.761719 49.921875 48.761719h332c25.804688 0 46.332031-20.050781 49.921875-48.761719l19.078125-152.621093c12.160156-3.832032 21-15.210938 21-28.617188v-20c0-16.542969-13.457031-30-30-30zm-156-160h63.441406c12.140625 0 23.132813 4.578125 31.796875 13.242188 8.171875 8.171874 13.527344 19.527343 15.082031 31.96875l14.351563 114.789062h-30.210937l-13.902344-111.214844c-.71875-5.75-3.039063-10.84375-6.527344-14.332031-2.871094-2.871094-6.632812-4.453125-10.589844-4.453125h-63.441406zm-201.492188 180h55.472657l-27.734375 27.734375zm41.878907 41.878906 37.734375-37.734375 37.738281 37.734375-37.738281 37.734375zm61.878906-41.878906h55.46875l-27.734375 27.734375zm27.734375 56.019531 37.734375 37.738281-30.664063 30.664063c-3.898437 3.898437-10.242187 3.898437-14.140624 0l-30.667969-30.664063zm51.878906 23.59375-37.738281-37.734375 37.738281-37.734375 37.734375 37.734375zm51.875-51.878906-27.734375-27.734375h55.472657zm-248.058594-47.734375 13.589844-108.730469c.0625-.492187.148438-.914062.246094-1.269531h260.9375c.097656.355469.183594.777344.246094 1.265625l13.589844 108.734375zm-36.019531-114.789062c1.558594-12.441407 6.914063-23.796876 15.085938-31.96875 8.664062-8.664063 19.65625-13.242188 31.796875-13.242188h63.441406v30h-63.441406c-3.957032 0-7.714844 1.578125-10.585938 4.453125-3.492187 3.492187-5.8125 8.582031-6.53125 14.332031l-13.902344 111.214844h-30.210937zm-55.675781 144.789062c0-5.515625 4.484375-10 10-10h19.996094.019531.019531 46.191406l40 40h-106.226562c-5.515625 0-10-4.488281-10-10zm432.078125 198.757812c-1.882813 15.046876-12.097656 31.242188-30.078125 31.242188h-332c-17.980469 0-28.195312-16.195312-30.078125-31.242188l-18.59375-148.757812h114.894531l78.5625 78.5625c5.851563 5.847656 13.53125 8.773438 21.214844 8.773438 7.679688 0 15.363281-2.925782 21.210938-8.773438l37.734374-37.730469c0-.003906 0-.003906.003907-.003906 0-.003906.003906-.003906.003906-.007813l40.824219-40.820312h114.894531zm39.921875-178.757812c0 5.511719-4.484375 10-10 10h-106.222656l40-40h46.1875.023437.015625 19.996094c5.515625 0 10 4.484375 10 10zm0 0"/><path d="m422 400h-54.996094c-5.523437 0-10 4.476562-10 10 0 5.519531 4.476563 10 10 10h54.996094c5.523438 0 10-4.480469 10-10 0-5.523438-4.476562-10-10-10zm0 0"/><path d="m322.007812 400h-.007812c-5.523438 0-9.996094 4.476562-9.996094 10 0 5.519531 4.480469 10 10.003906 10 5.523438 0 10-4.480469 10-10 0-5.523438-4.476562-10-10-10zm0 0"/><path d="m256 20c5.523438 0 10-4.476562 10-10s-4.476562-10-10-10h-.007812c-5.523438 0-9.996094 4.476562-9.996094 10s4.480468 10 10.003906 10zm0 0"/></svg>